/* XPM */
static char *_4_exit[] = {
/* columns rows colors chars-per-pixel */
"64 64 8 1 ",
"  c #25131A",
". c #362030",
"X c #3D253B",
"o c #523B40",
"O c #895A45",
"+ c #BF704D",
"@ c #90919E",
"# c #ADC1CF",
/* pixels */
"XXXXXXXXXXXX++++++++XXXXXXXXXXXXXXXXXXXXXXXX++++++++XXXXXXXXXXXX",
"XXXXXXXXXXXX++++++++XXXXXXXXXXXXXXXXXXXXXXXX++++++++XXXXXXXXXXXX",
"XXXXXXXXXXXX++++++++XXXXXXXXXXXXXXXXXXXXXXXX++++++++XXXXXXXXXXXX",
"XXXXXXXXXXXX++++++++XXXXXXXXXXXXXXXXXXXXXXXX++++++++XXXXXXXXXXXX",
"XXXXXXXXXXXXOOOOOOOOXXXXXXXXXXXXXXXXXXXXXXXXOOOOOOOOXXXXXXXXXXXX",
"XXXXXXXXXXXXOOOOOOOOXXXXXXXXXXXXXXXXXXXXXXXXOOOOOOOOXXXXXXXXXXXX",
"XXXXXXXXXXXXOOOOOOOOXXXXXXXXXXXXXXXXXXXXXXXXOOOOOOOOXXXXXXXXXXXX",
"XXXXXXXXXXXXOOOOOOOOXXXXXXXXXXXXXXXXXXXXXXXXOOOOOOOOXXXXXXXXXXXX",
"XXXXXXXXXXXXOOOOOOOOXXXXXXXXXXXXXXXXXXXXXXXXOOOOOOOOXXXXXXXXXXXX",
"XXXXXXXXXXXXOOOOOOOOXXXXXXXXXXXXXXXXXXXXXXXXOOOOOOOOXXXXXXXXXXXX",
"XXXXXXXXXXXXOOOOOOOOXXXXXXXXXXXXXXXXXXXXXXXXOOOOOOOOXXXXXXXXXXXX",
"XXXXXXXXXXXXOOOOOOOOXXXXXXXXXXXXXXXXXXXXXXXXOOOOOOOOXXXXXXXXXXXX",
"........++++@@@@####++++++++++++++++++++++++####@@@@++++........",
"........++++@@@@####++++++++++++++++++++++++####@@@@++++........",
"........++++@@@@####++++++++++++++++++++++++####@@@@++++........",
"........++++@@@@####++++++++++++++++++++++++####@@@@++++........",
"........OOOOOOOOOOOOOOOOOOOOOOOOOOOOOOOOOOOOOOOOOOOOOOOO........",
"........OOOOOOOOOOOOOOOOOOOOOOOOOOOOOOOOOOOOOOOOOOOOOOOO........",
"........OOOOOOOOOOOOOOOOOOOOOOOOOOOOOOOOOOOOOOOOOOOOOOOO........",
"........OOOOOOOOOOOOOOOOOOOOOOOOOOOOOOOOOOOOOOOOOOOOOOOO........",
"....        oooooooo                        oooooooo        ....",
"....        oooooooo                        oooooooo        ....",
"....        oooooooo                        oooooooo        ....",
"....        oooooooo                        oooooooo        ....",
"....        OOOOOOOO                        OOOOOOOO        ....",
"....        OOOOOOOO                        OOOOOOOO        ....",
"....        OOOOOOOO                        OOOOOOOO        ....",
"....        OOOOOOOO                        OOOOOOOO        ....",
"....        OOOOOOOO                        OOOOOOOO        ....",
"....        OOOOOOOO                        OOOOOOOO        ....",
"....        OOOOOOOO                        OOOOOOOO        ....",
"....        OOOOOOOO                        OOOOOOOO        ....",
"....        OOOOOOOO                        OOOOOOOO        ....",
"....        OOOOOOOO                        OOOOOOOO        ....",
"....        OOOOOOOO                        OOOOOOOO        ....",
"....        OOOOOOOO                        OOOOOOOO        ....",
"....        OOOOOOOO                        OOOOOOOO        ....",
"....        OOOOOOOO                        OOOOOOOO        ....",
"....        OOOOOOOO                        OOOOOOOO        ....",
"....        OOOOOOOO                        OOOOOOOO        ....",
"....        OOOOOOOO                        OOOOOOOO        ....",
"....        OOOOOOOO                        OOOOOOOO        ....",
"....        OOOOOOOO                        OOOOOOOO        ....",
"....        OOOOOOOO                        OOOOOOOO        ....",
"....    ++++@@@@####++++++++++++++++++++++++####@@@@++++    ....",
"....    ++++@@@@####++++++++++++++++++++++++####@@@@++++    ....",
"....    ++++@@@@####++++++++++++++++++++++++####@@@@++++    ....",
"....    ++++@@@@####++++++++++++++++++++++++####@@@@++++    ....",
"....    OOOOOOOOOOOOOOOOOOOOOOOOOOOOOOOOOOOOOOOOOOOOOOOO    ....",
"....    OOOOOOOOOOOOOOOOOOOOOOOOOOOOOOOOOOOOOOOOOOOOOOOO    ....",
"....    OOOOOOOOOOOOOOOOOOOOOOOOOOOOOOOOOOOOOOOOOOOOOOOO    ....",
"....    OOOOOOOOOOOOOOOOOOOOOOOOOOOOOOOOOOOOOOOOOOOOOOOO    ....",
"....        oooooooo                        oooooooo        ....",
"....        oooooooo                        oooooooo        ....",
"....        oooooooo                        oooooooo        ....",
"....        oooooooo                        oooooooo        ....",
"....        OOOOOOOO                        OOOOOOOO        ....",
"....        OOOOOOOO                        OOOOOOOO        ....",
"....        OOOOOOOO                        OOOOOOOO        ....",
"....        OOOOOOOO                        OOOOOOOO        ....",
"................................................................",
"................................................................",
"................................................................",
"................................................................"
};
