/* XPM */
static char *_4_ennemi_1[] = {
/* columns rows colors chars-per-pixel */
"64 64 10 1 ",
"  c #25131A",
". c #3D253B",
"X c #593756",
"o c #895A45",
"O c #BC4C51",
"+ c #8C7254",
"@ c #BF704D",
"# c #90919E",
"$ c #B19D83",
"% c #ADC1CF",
/* pixels */
"OOOOOOOO....                    ........................OOOOOOOO",
"OOOOOOOO....                    ........................OOOOOOOO",
"OOOOOOOO....                    ........................OOOOOOOO",
"OOOOOOOO....                    ........................OOOOOOOO",
"OOOO....    ++++$$$$$$$$$$$$++++    ........................OOOO",
"OOOO....    ++++$$$$$$$$$$$$++++    ........................OOOO",
"OOOO....    ++++$$$$$$$$$$$$++++    ........................OOOO",
"OOOO....    ++++$$$$$$$$$$$$++++    ........................OOOO",
"....    ++++$$$$$$$$$$$$$$$$$$$$++++                ............",
"....    ++++$$$$$$$$$$$$$$$$$$$$++++                ............",
"....    ++++$$$$$$$$$$$$$$$$$$$$++++                ............",
"....    ++++$$$$$$$$$$$$$$$$$$$$++++                ............",
"....    $$$$XXXXXXXX    $$$$XXXX        ############    ........",
"....    $$$$XXXXXXXX    $$$$XXXX        ############    ........",
"....    $$$$XXXXXXXX    $$$$XXXX        ############    ........",
"....    $$$$XXXXXXXX    $$$$XXXX        ############    ........",
"....    $$$$            $$$$                %%%%%%%%####    ....",
"....    $$$$            $$$$                %%%%%%%%####    ....",
"....    $$$$            $$$$                %%%%%%%%####    ....",
"....    $$$$            $$$$                %%%%%%%%####    ....",
"........    ++++$$$$$$$$$$$$$$$$$$$$        oooo    %%%%####    ",
"........    ++++$$$$$$$$$$$$$$$$$$$$        oooo    %%%%####    ",
"........    ++++$$$$$$$$$$$$$$$$$$$$        oooo    %%%%####    ",
"........    ++++$$$$$$$$$$$$$$$$$$$$        oooo    %%%%####    ",
"........        ++++$$$$    $$$$    ....    @@@@        %%%%    ",
"........        ++++$$$$    $$$$    ....    @@@@        %%%%    ",
"........        ++++$$$$    $$$$    ....    @@@@        %%%%    ",
"........        ++++$$$$    $$$$    ....    @@@@        %%%%    ",
"....    ++++                        ....    @@@@    ....        ",
"....    ++++                        ....    @@@@    ....        ",
"....    ++++                        ....    @@@@    ....        ",
"....    ++++                        ....    @@@@    ....        ",
"....    $$$$oooo@@@@    ++++    ++++        oooooooo    ........",
"....    $$$$oooo@@@@    ++++    ++++        oooooooo    ........",
"....    $$$$oooo@@@@    ++++    ++++        oooooooo    ........",
"....    $$$$oooo@@@@    ++++    ++++        oooooooo    ........",
"    $$$$        oooo@@@@            $$$$$$$$        ............",
"    $$$$        oooo@@@@            $$$$$$$$        ............",
"    $$$$        oooo@@@@            $$$$$$$$        ............",
"    $$$$        oooo@@@@            $$$$$$$$        ............",
"    ++++    ++++    %%%%@@@@    ....            ................",
"    ++++    ++++    %%%%@@@@    ....            ................",
"    ++++    ++++    %%%%@@@@    ....            ................",
"    ++++    ++++    %%%%@@@@    ....            ................",
"            ++++$$$$    oooo    ....    oooo    ................",
"            ++++$$$$    oooo    ....    oooo    ................",
"            ++++$$$$    oooo    ....    oooo    ................",
"            ++++$$$$    oooo    ....    oooo    ................",
"........    ++++                ....    @@@@    ................",
"........    ++++                ....    @@@@    ................",
"........    ++++                ....    @@@@    ................",
"........    ++++                ....    @@@@    ................",
"....    $$$$    ....    $$$$    ....    oooo    ................",
"....    $$$$    ....    $$$$    ....    oooo    ................",
"....    $$$$    ....    $$$$    ....    oooo    ................",
"....    $$$$    ....    $$$$    ....    oooo    ................",
"OOOO    ++++    ....    ++++    ....    oooo    ............OOOO",
"OOOO    ++++    ....    ++++    ....    oooo    ............OOOO",
"OOOO    ++++    ....    ++++    ....    oooo    ............OOOO",
"OOOO    ++++    ....    ++++    ....    oooo    ............OOOO",
"OOOOOOOO................................................OOOOOOOO",
"OOOOOOOO................................................OOOOOOOO",
"OOOOOOOO................................................OOOOOOOO",
"OOOOOOOO................................................OOOOOOOO"
};
