/* XPM */
static char *_4_ennemi_2[] = {
/* columns rows colors chars-per-pixel */
"64 64 9 1 ",
"  c None",
". c #25131A",
"X c #593756",
"o c #895A45",
"O c #8C7254",
"+ c #BF704D",
"@ c #90919E",
"# c #B19D83",
"$ c #ADC1CF",
/* pixels */
"            ....................                                ",
"            ....................                                ",
"            ....................                                ",
"            ....................                                ",
"        ....OOOO############OOOO....                            ",
"        ....OOOO############OOOO....                            ",
"        ....OOOO############OOOO....                            ",
"        ....OOOO############OOOO....                            ",
"    ....OOOO####################OOOO................            ",
"    ....OOOO####################OOOO................            ",
"    ....OOOO####################OOOO................            ",
"    ....OOOO####################OOOO................            ",
"    ....####XXXXXXXX....####XXXX........@@@@@@@@@@@@....        ",
"    ....####XXXXXXXX....####XXXX........@@@@@@@@@@@@....        ",
"    ....####XXXXXXXX....####XXXX........@@@@@@@@@@@@....        ",
"    ....####XXXXXXXX....####XXXX........@@@@@@@@@@@@....        ",
"    ....####............####................$$$$$$$$@@@@....    ",
"    ....####............####................$$$$$$$$@@@@....    ",
"    ....####............####................$$$$$$$$@@@@....    ",
"    ....####............####................$$$$$$$$@@@@....    ",
"        ....OOOO####################........oooo....$$$$@@@@....",
"        ....OOOO####################........oooo....$$$$@@@@....",
"        ....OOOO####################........oooo....$$$$@@@@....",
"        ....OOOO####################........oooo....$$$$@@@@....",
"        ........OOOO####....####....    ....++++........$$$$....",
"        ........OOOO####....####....    ....++++........$$$$....",
"        ........OOOO####....####....    ....++++........$$$$....",
"        ........OOOO####....####....    ....++++........$$$$....",
"    ....OOOO........................    ....++++....    ........",
"    ....OOOO........................    ....++++....    ........",
"    ....OOOO........................    ....++++....    ........",
"    ....OOOO........................    ....++++....    ........",
"    ....####oooo++++....OOOO....OOOO........oooooooo....        ",
"    ....####oooo++++....OOOO....OOOO........oooooooo....        ",
"    ....####oooo++++....OOOO....OOOO........oooooooo....        ",
"    ....####oooo++++....OOOO....OOOO........oooooooo....        ",
"....####........oooo++++............########........            ",
"....####........oooo++++............########........            ",
"....####........oooo++++............########........            ",
"....####........oooo++++............########........            ",
"....OOOO....OOOO....$$$$++++....    ............                ",
"....OOOO....OOOO....$$$$++++....    ............                ",
"....OOOO....OOOO....$$$$++++....    ............                ",
"....OOOO....OOOO....$$$$++++....    ............                ",
"............OOOO####....oooo....    ....oooo....                ",
"............OOOO####....oooo....    ....oooo....                ",
"............OOOO####....oooo....    ....oooo....                ",
"............OOOO####....oooo....    ....oooo....                ",
"        ....OOOO................    ....++++....                ",
"        ....OOOO................    ....++++....                ",
"        ....OOOO................    ....++++....                ",
"        ....OOOO................    ....++++....                ",
"    ....####....    ....####....    ....oooo....                ",
"    ....####....    ....####....    ....oooo....                ",
"    ....####....    ....####....    ....oooo....                ",
"    ....####....    ....####....    ....oooo....                ",
"    ....OOOO....    ....OOOO....    ....oooo....                ",
"    ....OOOO....    ....OOOO....    ....oooo....                ",
"    ....OOOO....    ....OOOO....    ....oooo....                ",
"    ....OOOO....    ....OOOO....    ....oooo....                ",
"                                                                ",
"                                                                ",
"                                                                ",
"                                                                "
};
