/* XPM */
static char *_4_ground_1[] = {
/* columns rows colors chars-per-pixel */
"64 64 2 1 ",
"  c #362030",
". c #3D253B",
/* pixels */
"............................................................    ",
"............................................................    ",
"............................................................    ",
"............................................................    ",
"............................................................    ",
"............................................................    ",
"............................................................    ",
"............................................................    ",
"............................................................    ",
"............................................................    ",
"............................................................    ",
"............................................................    ",
"............................................................    ",
"............................................................    ",
"............................................................    ",
"............................................................    ",
"................................    ....        ....            ",
"................................    ....        ....            ",
"................................    ....        ....            ",
"................................    ....        ....            ",
"................................................................",
"................................................................",
"................................................................",
"................................................................",
"................................................................",
"................................................................",
"................................................................",
"................................................................",
"................................................................",
"................................................................",
"................................................................",
"................................................................",
"................................................................",
"................................................................",
"................................................................",
"................................................................",
"................................................................",
"................................................................",
"................................................................",
"................................................................",
"................................................................",
"................................................................",
"................................................................",
"................................................................",
"................................................................",
"................................................................",
"................................................................",
"................................................................",
"................................................................",
"................................................................",
"................................................................",
"................................................................",
"................................................................",
"................................................................",
"................................................................",
"................................................................",
"................................................................",
"................................................................",
"................................................................",
"................................................................",
"                    ....    ....................................",
"                    ....    ....................................",
"                    ....    ....................................",
"                    ....    ...................................."
};
