/* XPM */
static char *_4_AnyConv_com__priest2_v1_2[] = {
/* columns rows colors chars-per-pixel */
"64 64 7 1 ",
"  c None",
". c #25131A",
"X c #373737",
"o c #895A45",
"O c #BF704D",
"+ c #90919E",
"@ c #ADC1CF",
/* pixels */
"                                                                ",
"                                                                ",
"                                                                ",
"                                                                ",
"                        ........................                ",
"                        ........................                ",
"                        ........................                ",
"                        ........................                ",
"                    ....@@@@++++++++++++++++++++....            ",
"                    ....@@@@++++++++++++++++++++....            ",
"                    ....@@@@++++++++++++++++++++....            ",
"                    ....@@@@++++++++++++++++++++....            ",
"                ....@@@@++++........................            ",
"                ....@@@@++++........................            ",
"                ....@@@@++++........................            ",
"                ....@@@@++++........................            ",
"                ....++++++++....@@@@....@@@@....@@@@....        ",
"                ....++++++++....@@@@....@@@@....@@@@....        ",
"                ....++++++++....@@@@....@@@@....@@@@....        ",
"                ....++++++++....@@@@....@@@@....@@@@....        ",
"                ....++++@@@@....@@@@....@@@@....@@@@....        ",
"                ....++++@@@@....@@@@....@@@@....@@@@....        ",
"                ....++++@@@@....@@@@....@@@@....@@@@....        ",
"                ....++++@@@@....@@@@....@@@@....@@@@....        ",
"                ....++++@@@@@@@@@@@@@@@@@@@@@@@@@@@@....        ",
"                ....++++@@@@@@@@@@@@@@@@@@@@@@@@@@@@....        ",
"                ....++++@@@@@@@@@@@@@@@@@@@@@@@@@@@@....        ",
"                ....++++@@@@@@@@@@@@@@@@@@@@@@@@@@@@....        ",
"            ........XXXX++++++++++++........++++........        ",
"            ........XXXX++++++++++++........++++........        ",
"            ........XXXX++++++++++++........++++........        ",
"            ........XXXX++++++++++++........++++........        ",
"        ....++++@@@@........++++++++++++++++....@@@@....        ",
"        ....++++@@@@........++++++++++++++++....@@@@....        ",
"        ....++++@@@@........++++++++++++++++....@@@@....        ",
"        ....++++@@@@........++++++++++++++++....@@@@....        ",
"        ....++++@@@@....XXXXXXXX....@@@@....XXXX@@@@........    ",
"        ....++++@@@@....XXXXXXXX....@@@@....XXXX@@@@........    ",
"        ....++++@@@@....XXXXXXXX....@@@@....XXXX@@@@........    ",
"        ....++++@@@@....XXXXXXXX....@@@@....XXXX@@@@........    ",
"        ....oooo........XXXX....++++++++@@@@XXXX....oooo....    ",
"        ....oooo........XXXX....++++++++@@@@XXXX....oooo....    ",
"        ....oooo........XXXX....++++++++@@@@XXXX....oooo....    ",
"        ....oooo........XXXX....++++++++@@@@XXXX....oooo....    ",
"        ............ooooooooOOOO....@@@@....OOOO............    ",
"        ............ooooooooOOOO....@@@@....OOOO............    ",
"        ............ooooooooOOOO....@@@@....OOOO............    ",
"        ............ooooooooOOOO....@@@@....OOOO............    ",
"                ....XXXXXXXXXXXX....@@@@....XXXX....            ",
"                ....XXXXXXXXXXXX....@@@@....XXXX....            ",
"                ....XXXXXXXXXXXX....@@@@....XXXX....            ",
"                ....XXXXXXXXXXXX....@@@@....XXXX....            ",
"            ....XXXXXXXXXXXXXXXXXXXX....XXXXXXXXXXXX....        ",
"            ....XXXXXXXXXXXXXXXXXXXX....XXXXXXXXXXXX....        ",
"            ....XXXXXXXXXXXXXXXXXXXX....XXXXXXXXXXXX....        ",
"            ....XXXXXXXXXXXXXXXXXXXX....XXXXXXXXXXXX....        ",
"            ....XXXXXXXXXXXXXXXX....oooo....XXXXXXXX....        ",
"            ....XXXXXXXXXXXXXXXX....oooo....XXXXXXXX....        ",
"            ....XXXXXXXXXXXXXXXX....oooo....XXXXXXXX....        ",
"            ....XXXXXXXXXXXXXXXX....oooo....XXXXXXXX....        ",
"                                                                ",
"                                                                ",
"                                                                ",
"                                                                "
};
