/* XPM */
static char *_4_AnyConv_com__priest2_v1_3[] = {
/* columns rows colors chars-per-pixel */
"64 64 7 1 ",
"  c None",
". c #25131A",
"X c #373737",
"o c #895A45",
"O c #BF704D",
"+ c #90919E",
"@ c #ADC1CF",
/* pixels */
"                        ........................                ",
"                        ........................                ",
"                        ........................                ",
"                        ........................                ",
"                    ....@@@@++++++++++++++++++++....            ",
"                    ....@@@@++++++++++++++++++++....            ",
"                    ....@@@@++++++++++++++++++++....            ",
"                    ....@@@@++++++++++++++++++++....            ",
"                ....@@@@++++........................            ",
"                ....@@@@++++........................            ",
"                ....@@@@++++........................            ",
"                ....@@@@++++........................            ",
"                ....++++++++....@@@@....@@@@....@@@@....        ",
"                ....++++++++....@@@@....@@@@....@@@@....        ",
"                ....++++++++....@@@@....@@@@....@@@@....        ",
"                ....++++++++....@@@@....@@@@....@@@@....        ",
"                ....++++@@@@....@@@@....@@@@....@@@@....        ",
"                ....++++@@@@....@@@@....@@@@....@@@@....        ",
"                ....++++@@@@....@@@@....@@@@....@@@@....        ",
"                ....++++@@@@....@@@@....@@@@....@@@@....        ",
"                ....++++@@@@@@@@@@@@@@@@@@@@@@@@@@@@....        ",
"                ....++++@@@@@@@@@@@@@@@@@@@@@@@@@@@@....        ",
"                ....++++@@@@@@@@@@@@@@@@@@@@@@@@@@@@....        ",
"                ....++++@@@@@@@@@@@@@@@@@@@@@@@@@@@@....        ",
"                ........++++++++++++........++++....            ",
"                ........++++++++++++........++++....            ",
"                ........++++++++++++........++++....            ",
"                ........++++++++++++........++++....            ",
"            ........XXXX....++++++++++++++++............        ",
"            ........XXXX....++++++++++++++++............        ",
"            ........XXXX....++++++++++++++++............        ",
"            ........XXXX....++++++++++++++++............        ",
"        ....++++@@@@....XXXXXXXX....@@@@........@@@@....        ",
"        ....++++@@@@....XXXXXXXX....@@@@........@@@@....        ",
"        ....++++@@@@....XXXXXXXX....@@@@........@@@@....        ",
"        ....++++@@@@....XXXXXXXX....@@@@........@@@@....        ",
"        ....++++@@@@....XXXX....++++++++@@@@XXXX@@@@........    ",
"        ....++++@@@@....XXXX....++++++++@@@@XXXX@@@@........    ",
"        ....++++@@@@....XXXX....++++++++@@@@XXXX@@@@........    ",
"        ....++++@@@@....XXXX....++++++++@@@@XXXX@@@@........    ",
"        ....oooo........XXXXXXXX....@@@@....XXXX....oooo....    ",
"        ....oooo........XXXXXXXX....@@@@....XXXX....oooo....    ",
"        ....oooo........XXXXXXXX....@@@@....XXXX....oooo....    ",
"        ....oooo........XXXXXXXX....@@@@....XXXX....oooo....    ",
"        ............ooooooooOOOO....@@@@....OOOO............    ",
"        ............ooooooooOOOO....@@@@....OOOO............    ",
"        ............ooooooooOOOO....@@@@....OOOO............    ",
"        ............ooooooooOOOO....@@@@....OOOO............    ",
"                ....XXXXXXXXXXXX........XXXXXXXX....            ",
"                ....XXXXXXXXXXXX........XXXXXXXX....            ",
"                ....XXXXXXXXXXXX........XXXXXXXX....            ",
"                ....XXXXXXXXXXXX........XXXXXXXX....            ",
"            ....XXXXXXXXXXXXXXXX....OOOO....XXXXXXXX....        ",
"            ....XXXXXXXXXXXXXXXX....OOOO....XXXXXXXX....        ",
"            ....XXXXXXXXXXXXXXXX....OOOO....XXXXXXXX....        ",
"            ....XXXXXXXXXXXXXXXX....OOOO....XXXXXXXX....        ",
"            ....XXXXXXXXXXXXXXXX....oooo....XXXXXXXX....        ",
"            ....XXXXXXXXXXXXXXXX....oooo....XXXXXXXX....        ",
"            ....XXXXXXXXXXXXXXXX....oooo....XXXXXXXX....        ",
"            ....XXXXXXXXXXXXXXXX....oooo....XXXXXXXX....        ",
"                                                                ",
"                                                                ",
"                                                                ",
"                                                                "
};
