/* XPM */
static char *_4_wall_10[] = {
/* columns rows colors chars-per-pixel */
"64 64 5 1 ",
"  c #25131A",
". c #3D253B",
"X c #4C2F49",
"o c #6E4A48",
"O c #78514F",
/* pixels */
"                                                                ",
"                                                                ",
"                                                                ",
"                                                                ",
"                                                                ",
"                                                                ",
"                                                                ",
"                                                                ",
"                                                                ",
"                                                                ",
"                                                                ",
"                                                                ",
"                                                                ",
"                                                                ",
"                                                                ",
"                                                                ",
"                                                                ",
"                                                                ",
"                                                                ",
"                                                                ",
"                                                                ",
"                                                                ",
"                                                                ",
"                                                                ",
"                                                                ",
"                                                                ",
"                                                                ",
"                                                                ",
"                                                                ",
"                                                                ",
"                                                                ",
"                                                                ",
"XXXXXXXXXXXXXXXXXXXXXXXXXXXX                                    ",
"XXXXXXXXXXXXXXXXXXXXXXXXXXXX                                    ",
"XXXXXXXXXXXXXXXXXXXXXXXXXXXX                                    ",
"XXXXXXXXXXXXXXXXXXXXXXXXXXXX                                    ",
"XXXXooooOOOOOOOOOOOOooooXXXX                                    ",
"XXXXooooOOOOOOOOOOOOooooXXXX                                    ",
"XXXXooooOOOOOOOOOOOOooooXXXX                                    ",
"XXXXooooOOOOOOOOOOOOooooXXXX                                    ",
"XXXXOOOOooooooooOOOOooooXXXX                                    ",
"XXXXOOOOooooooooOOOOooooXXXX                                    ",
"XXXXOOOOooooooooOOOOooooXXXX                                    ",
"XXXXOOOOooooooooOOOOooooXXXX                                    ",
"XXXXOOOOooooooooooooOOOOXXXX                                    ",
"XXXXOOOOooooooooooooOOOOXXXX                                    ",
"XXXXOOOOooooooooooooOOOOXXXX                                    ",
"XXXXOOOOooooooooooooOOOOXXXX                                    ",
"XXXXooooooooooooooooooooXXXX                                    ",
"XXXXooooooooooooooooooooXXXX                                    ",
"XXXXooooooooooooooooooooXXXX                                    ",
"XXXXooooooooooooooooooooXXXX                                    ",
"XXXXooooooooooooooooooooXXXX                                    ",
"XXXXooooooooooooooooooooXXXX                                    ",
"XXXXooooooooooooooooooooXXXX                                    ",
"XXXXooooooooooooooooooooXXXX                                    ",
"....XXXXXXXXXXXXXXXXXXXXXXXX                                    ",
"....XXXXXXXXXXXXXXXXXXXXXXXX                                    ",
"....XXXXXXXXXXXXXXXXXXXXXXXX                                    ",
"....XXXXXXXXXXXXXXXXXXXXXXXX                                    ",
"........................                                        ",
"........................                                        ",
"........................                                        ",
"........................                                        "
};
