/* XPM */
static char *_4_wall_3[] = {
/* columns rows colors chars-per-pixel */
"64 64 4 1 ",
"  c #25131A",
". c #4C2F49",
"X c #6E4A48",
"o c #78514F",
/* pixels */
"................................................................",
"................................................................",
"................................................................",
"................................................................",
"....ooooXXXXoooooooooooooooo........ooooooooXXXXoooooooooooo....",
"....ooooXXXXoooooooooooooooo........ooooooooXXXXoooooooooooo....",
"....ooooXXXXoooooooooooooooo........ooooooooXXXXoooooooooooo....",
"....ooooXXXXoooooooooooooooo........ooooooooXXXXoooooooooooo....",
"....XXXXXXXXXXXXXXXXoooooooo........ooooXXXXXXXXXXXXXXXXoooo....",
"....XXXXXXXXXXXXXXXXoooooooo........ooooXXXXXXXXXXXXXXXXoooo....",
"....XXXXXXXXXXXXXXXXoooooooo........ooooXXXXXXXXXXXXXXXXoooo....",
"....XXXXXXXXXXXXXXXXoooooooo........ooooXXXXXXXXXXXXXXXXoooo....",
"....XXXXXXXXXXXXXXXXoooooooo........ooooXXXXXXXXXXXXXXXXoooo....",
"....XXXXXXXXXXXXXXXXoooooooo........ooooXXXXXXXXXXXXXXXXoooo....",
"....XXXXXXXXXXXXXXXXoooooooo........ooooXXXXXXXXXXXXXXXXoooo....",
"....XXXXXXXXXXXXXXXXoooooooo........ooooXXXXXXXXXXXXXXXXoooo....",
"....XXXXXXXXXXXXXXXXoooooooo........ooooXXXXXXXXXXXXXXXXoooo....",
"....XXXXXXXXXXXXXXXXoooooooo........ooooXXXXXXXXXXXXXXXXoooo....",
"....XXXXXXXXXXXXXXXXoooooooo........ooooXXXXXXXXXXXXXXXXoooo....",
"....XXXXXXXXXXXXXXXXoooooooo........ooooXXXXXXXXXXXXXXXXoooo....",
"....XXXXXXXXXXXXXXXXoooooooo........ooooXXXXXXXXXXXXXXXXoooo....",
"....XXXXXXXXXXXXXXXXoooooooo........ooooXXXXXXXXXXXXXXXXoooo....",
"....XXXXXXXXXXXXXXXXoooooooo........ooooXXXXXXXXXXXXXXXXoooo....",
"....XXXXXXXXXXXXXXXXoooooooo........ooooXXXXXXXXXXXXXXXXoooo....",
"....XXXXXXXXXXXXXXXXoooooooo........ooooXXXXXXXXXXXXXXXXoooo....",
"....XXXXXXXXXXXXXXXXoooooooo........ooooXXXXXXXXXXXXXXXXoooo....",
"....XXXXXXXXXXXXXXXXoooooooo........ooooXXXXXXXXXXXXXXXXoooo....",
"....XXXXXXXXXXXXXXXXoooooooo........ooooXXXXXXXXXXXXXXXXoooo....",
"................................................................",
"................................................................",
"................................................................",
"................................................................",
"................................................................",
"................................................................",
"................................................................",
"................................................................",
"....ooooXXXXoooooooooooooooo........ooooooooXXXXoooooooooooo....",
"....ooooXXXXoooooooooooooooo........ooooooooXXXXoooooooooooo....",
"....ooooXXXXoooooooooooooooo........ooooooooXXXXoooooooooooo....",
"....ooooXXXXoooooooooooooooo........ooooooooXXXXoooooooooooo....",
"....XXXXXXXXXXXXXXXXoooooooo........ooooXXXXXXXXXXXXXXXXoooo....",
"....XXXXXXXXXXXXXXXXoooooooo........ooooXXXXXXXXXXXXXXXXoooo....",
"....XXXXXXXXXXXXXXXXoooooooo........ooooXXXXXXXXXXXXXXXXoooo....",
"....XXXXXXXXXXXXXXXXoooooooo........ooooXXXXXXXXXXXXXXXXoooo....",
"....XXXXXXXXXXXXXXXXoooooooo........ooooXXXXXXXXXXXXXXXXoooo....",
"....XXXXXXXXXXXXXXXXoooooooo........ooooXXXXXXXXXXXXXXXXoooo....",
"....XXXXXXXXXXXXXXXXoooooooo........ooooXXXXXXXXXXXXXXXXoooo....",
"....XXXXXXXXXXXXXXXXoooooooo........ooooXXXXXXXXXXXXXXXXoooo....",
"....XXXXXXXXXXXXXXXXoooooooo........ooooXXXXXXXXXXXXXXXXoooo....",
"....XXXXXXXXXXXXXXXXoooooooo........ooooXXXXXXXXXXXXXXXXoooo....",
"....XXXXXXXXXXXXXXXXoooooooo........ooooXXXXXXXXXXXXXXXXoooo....",
"....XXXXXXXXXXXXXXXXoooooooo........ooooXXXXXXXXXXXXXXXXoooo....",
"....XXXXXXXXXXXXXXXXoooooooo........ooooXXXXXXXXXXXXXXXXoooo....",
"....XXXXXXXXXXXXXXXXoooooooo........ooooXXXXXXXXXXXXXXXXoooo....",
"....XXXXXXXXXXXXXXXXoooooooo........ooooXXXXXXXXXXXXXXXXoooo....",
"....XXXXXXXXXXXXXXXXoooooooo........ooooXXXXXXXXXXXXXXXXoooo....",
"....XXXXXXXXXXXXXXXXoooooooo........ooooXXXXXXXXXXXXXXXXoooo....",
"....XXXXXXXXXXXXXXXXoooooooo........ooooXXXXXXXXXXXXXXXXoooo....",
"....XXXXXXXXXXXXXXXXoooooooo........ooooXXXXXXXXXXXXXXXXoooo....",
"....XXXXXXXXXXXXXXXXoooooooo........ooooXXXXXXXXXXXXXXXXoooo....",
"................................................................",
"................................................................",
"................................................................",
"................................................................"
};
