/* XPM */
static char *_4_wall_2[] = {
/* columns rows colors chars-per-pixel */
"64 64 10 1 ",
"  c #25131A",
". c #3D253B",
"X c #422C3B",
"o c #4C2F49",
"O c #483040",
"+ c #4F3740",
"@ c #543740",
"# c #593756",
"$ c #6E4A48",
"% c #78514F",
/* pixels */
"####oooo############################oooooooooooooooooooooooooooo",
"####oooo############################oooooooooooooooooooooooooooo",
"####oooo############################oooooooooooooooooooooooooooo",
"####oooo############################oooooooooooooooooooooooooooo",
"oooo$$$$$$$$$$$$$$$$$$$$$$$$$$$$$$$$$$$$$$$$$$$$$$$$$$$$$$$$oooo",
"oooo$$$$$$$$$$$$$$$$$$$$$$$$$$$$$$$$$$$$$$$$$$$$$$$$$$$$$$$$oooo",
"oooo$$$$$$$$$$$$$$$$$$$$$$$$$$$$$$$$$$$$$$$$$$$$$$$$$$$$$$$$oooo",
"oooo$$$$$$$$$$$$$$$$$$$$$$$$$$$$$$$$$$$$$$$$$$$$$$$$$$$$$$$$oooo",
"oooo$$$$$$$$$$$$$$$$$$$$$$$$$$$$$$$$$$$$$$$$$$$$$$$$$$$$$$$$oooo",
"oooo$$$$$$$$$$$$$$$$$$$$$$$$$$$$$$$$$$$$$$$$$$$$$$$$$$$$$$$$oooo",
"oooo$$$$$$$$$$$$$$$$$$$$$$$$$$$$$$$$$$$$$$$$$$$$$$$$$$$$$$$$oooo",
"oooo$$$$$$$$$$$$$$$$$$$$$$$$$$$$$$$$$$$$$$$$$$$$$$$$$$$$$$$$oooo",
"oooo%%%%%%%%%%%%%%%%%%%%%%%%%%%%%%%%%%%%%%%%%%%%%%%%%%%%%%%%oooo",
"oooo%%%%%%%%%%%%%%%%%%%%%%%%%%%%%%%%%%%%%%%%%%%%%%%%%%%%%%%%oooo",
"oooo%%%%%%%%%%%%%%%%%%%%%%%%%%%%%%%%%%%%%%%%%%%%%%%%%%%%%%%%oooo",
"oooo%%%%%%%%%%%%%%%%%%%%%%%%%%%%%%%%%%%%%%%%%%%%%%%%%%%%%%%%oooo",
"....@@@@@@@@@@@@@@@@@@@@@@@@@@@@@@@@@@@@@@@@@@@@@@@@@@@@@@@@....",
"....@@@@@@@@@@@@@@@@@@@@@@@@@@@@@@@@@@@@@@@@@@@@@@@@@@@@@@@@....",
"....@@@@@@@@@@@@@@@@@@@@@@@@@@@@@@@@@@@@@@@@@@@@@@@@@@@@@@@@....",
"....@@@@@@@@@@@@@@@@@@@@@@@@@@@@@@@@@@@@@@@@@@@@@@@@@@@@@@@@....",
"....@@@@@@@@@@@@@@@@@@@@@@@@@@@@@@@@@@@@@@@@@@@@@@@@@@@@@@@@oooo",
"....@@@@@@@@@@@@@@@@@@@@@@@@@@@@@@@@@@@@@@@@@@@@@@@@@@@@@@@@oooo",
"....@@@@@@@@@@@@@@@@@@@@@@@@@@@@@@@@@@@@@@@@@@@@@@@@@@@@@@@@oooo",
"....@@@@@@@@@@@@@@@@@@@@@@@@@@@@@@@@@@@@@@@@@@@@@@@@@@@@@@@@oooo",
"....OOOO@@@@@@@@@@@@@@@@@@@@@@@@@@@@@@@@@@@@@@@@@@@@@@@@OOOO....",
"....OOOO@@@@@@@@@@@@@@@@@@@@@@@@@@@@@@@@@@@@@@@@@@@@@@@@OOOO....",
"....OOOO@@@@@@@@@@@@@@@@@@@@@@@@@@@@@@@@@@@@@@@@@@@@@@@@OOOO....",
"....OOOO@@@@@@@@@@@@@@@@@@@@@@@@@@@@@@@@@@@@@@@@@@@@@@@@OOOO....",
"    ............................................................",
"    ............................................................",
"    ............................................................",
"    ............................................................",
"....OOOO@@@@@@@@@@@@@@@@OOOO....OOOO@@@@@@@@@@@@@@@@@@@@OOOO....",
"....OOOO@@@@@@@@@@@@@@@@OOOO....OOOO@@@@@@@@@@@@@@@@@@@@OOOO....",
"....OOOO@@@@@@@@@@@@@@@@OOOO....OOOO@@@@@@@@@@@@@@@@@@@@OOOO....",
"....OOOO@@@@@@@@@@@@@@@@OOOO....OOOO@@@@@@@@@@@@@@@@@@@@OOOO....",
"....@@@@@@@@@@@@@@@@@@@@@@@@....@@@@@@@@@@@@@@@@@@@@@@@@@@@@    ",
"....@@@@@@@@@@@@@@@@@@@@@@@@....@@@@@@@@@@@@@@@@@@@@@@@@@@@@    ",
"....@@@@@@@@@@@@@@@@@@@@@@@@....@@@@@@@@@@@@@@@@@@@@@@@@@@@@    ",
"....@@@@@@@@@@@@@@@@@@@@@@@@....@@@@@@@@@@@@@@@@@@@@@@@@@@@@    ",
"    OOOO@@@@@@@@@@@@@@@@OOOO    OOOO@@@@@@@@@@@@@@@@@@@@OOOO....",
"    OOOO@@@@@@@@@@@@@@@@OOOO    OOOO@@@@@@@@@@@@@@@@@@@@OOOO....",
"    OOOO@@@@@@@@@@@@@@@@OOOO    OOOO@@@@@@@@@@@@@@@@@@@@OOOO....",
"    OOOO@@@@@@@@@@@@@@@@OOOO    OOOO@@@@@@@@@@@@@@@@@@@@OOOO....",
"............                                        ........    ",
"............                                        ........    ",
"............                                        ........    ",
"............                                        ........    ",
"    XXXX+OOOO++++O+++++O+OOOO+++OO+++++++OOOO++++O+++++OXXXX....",
"    XXXX++OO++++OO++++OO++OO++++OO++++++++OO++++OO++++OOXXXX....",
"    XXXX++++++++O+++++OO++++++++OOO++++O++++++++O+++++OOXXXX....",
"    XXXX++++++++++++++++++++++++OO+++++O++++++++++++++++XXXX....",
"    OOOOO+++++OO++++++++O+++++OO++++++++O+++++OO++++++++++++    ",
"    OOOOO++++OOO++++++++O++++OOO++++++++O++++OOO+++++++++O++    ",
"    ++O+++++++OO+++++O++++++++OO++++OO++++++++OO+++++O++OOOO    ",
"    ++++++++++OOOO+++OOO++++++OO+++OOOO+++++++OOOO+++OOOOOOO    ",
"    XXXXXXXXXXXXXXXXXXXXXXXXXXXXXXXXXXXXXXXXXXXXXXXXXXXXXXXX    ",
"    XXXXXXXXXXXXXXXXXXXXXXXXXXXXXXXXXXXXXXXXXXXXXXXXXXXXXXXX    ",
"    XXXXXXXXXXXXXXXXXXXXXXXXXXXXXXXXXXXXXXXXXXXXXXXXXXXXXXXX    ",
"    XXXXXXXXXXXXXXXXXXXXXXXXXXXXXXXXXXXXXXXXXXXXXXXXXXXXXXXX    ",
"                                                                ",
"                                                                ",
"                                                                ",
"                                                                "
};
