/* XPM */
static char *_4_wall_1[] = {
/* columns rows colors chars-per-pixel */
"64 64 17 1 ",
"  c #25131A",
". c #3D253B",
"X c #422C3B",
"o c #4C2F49",
"O c #483040",
"+ c #4F3740",
"@ c #543740",
"# c #593756",
"$ c #6E4A48",
"% c #78514F",
"& c #895A45",
"* c #BC4C51",
"= c #BF704D",
"- c #D1851E",
"; c #FFD569",
": c #90919E",
"> c #ADC1CF",
/* pixels */
"oooooooooooooooooooo####oooooooo####################oooooooooooo",
"oooooooooooooooooooo####oooooooo####################oooooooooooo",
"oooooooooooooooooooo####oooooooo####################oooooooooooo",
"oooooooooooooooooooo####oooooooo####################oooooooooooo",
"oooo$$$$$$$$$$$$$$$$$$$$$$$$$$$$$$$$$$$$$$$$$$$$$$$$$$$$$$$$oooo",
"oooo$$$$$$$$$$$$$$$$$$$$$$$$$$$$$$$$$$$$$$$$$$$$$$$$$$$$$$$$oooo",
"oooo$$$$$$$$$$$$$$$$$$$$$$$$$$$$$$$$$$$$$$$$$$$$$$$$$$$$$$$$oooo",
"oooo$$$$$$$$$$$$$$$$$$$$$$$$$$$$$$$$$$$$$$$$$$$$$$$$$$$$$$$$oooo",
"oooo$$$$$$$$$$$$$$$$$$$$$$$$$$$$        $$$$$$$$$$$$$$$$$$$$oooo",
"oooo$$$$$$$$$$$$$$$$$$$$$$$$$$$$        $$$$$$$$$$$$$$$$$$$$oooo",
"oooo$$$$$$$$$$$$$$$$$$$$$$$$$$$$        $$$$$$$$$$$$$$$$$$$$oooo",
"oooo$$$$$$$$$$$$$$$$$$$$$$$$$$$$        $$$$$$$$$$$$$$$$$$$$oooo",
"oooo%%%%%%%%%%%%%%%%%%%%%%%%    ********    %%%%%%%%%%%%%%%%oooo",
"oooo%%%%%%%%%%%%%%%%%%%%%%%%    ********    %%%%%%%%%%%%%%%%oooo",
"oooo%%%%%%%%%%%%%%%%%%%%%%%%    ********    %%%%%%%%%%%%%%%%oooo",
"oooo%%%%%%%%%%%%%%%%%%%%%%%%    ********    %%%%%%%%%%%%%%%%oooo",
"....@@@@@@@@@@@@@@@@@@@@    ********    @@@@@@@@@@@@@@@@@@@@....",
"....@@@@@@@@@@@@@@@@@@@@    ********    @@@@@@@@@@@@@@@@@@@@....",
"....@@@@@@@@@@@@@@@@@@@@    ********    @@@@@@@@@@@@@@@@@@@@....",
"....@@@@@@@@@@@@@@@@@@@@    ********    @@@@@@@@@@@@@@@@@@@@....",
"....@@@@@@@@@@@@@@@@    ****************    @@@@@@@@@@@@@@@@oooo",
"....@@@@@@@@@@@@@@@@    ****************    @@@@@@@@@@@@@@@@oooo",
"....@@@@@@@@@@@@@@@@    ****************    @@@@@@@@@@@@@@@@oooo",
"....@@@@@@@@@@@@@@@@    ****************    @@@@@@@@@@@@@@@@oooo",
"....OOOO@@@@@@@@    ********----************    @@@@@@@@OOOO....",
"....OOOO@@@@@@@@    ********----************    @@@@@@@@OOOO....",
"....OOOO@@@@@@@@    ********----************    @@@@@@@@OOOO....",
"....OOOO@@@@@@@@    ********----************    @@@@@@@@OOOO....",
"    ............    ********;;;;----********    ................",
"    ............    ********;;;;----********    ................",
"    ............    ********;;;;----********    ................",
"    ............    ********;;;;----********    ................",
"....OOOO@@@@@@@@@@@@    ----;;;;;;;;****    @@@@@@@@@@@@OOOO....",
"....OOOO@@@@@@@@@@@@    ----;;;;;;;;****    @@@@@@@@@@@@OOOO....",
"....OOOO@@@@@@@@@@@@    ----;;;;;;;;****    @@@@@@@@@@@@OOOO....",
"....OOOO@@@@@@@@@@@@    ----;;;;;;;;****    @@@@@@@@@@@@OOOO....",
"....@@@@@@@@@@@@    ::::>>>>========>>>>::::    @@@@@@@@@@@@    ",
"....@@@@@@@@@@@@    ::::>>>>========>>>>::::    @@@@@@@@@@@@    ",
"....@@@@@@@@@@@@    ::::>>>>========>>>>::::    @@@@@@@@@@@@    ",
"....@@@@@@@@@@@@    ::::>>>>========>>>>::::    @@@@@@@@@@@@    ",
"    OOOO@@@@@@@@@@@@    &&&&&&&&&&&&&&&&    @@@@@@@@@@@@OOOO....",
"    OOOO@@@@@@@@@@@@    &&&&&&&&&&&&&&&&    @@@@@@@@@@@@OOOO....",
"    OOOO@@@@@@@@@@@@    &&&&&&&&&&&&&&&&    @@@@@@@@@@@@OOOO....",
"    OOOO@@@@@@@@@@@@    &&&&&&&&&&&&&&&&    @@@@@@@@@@@@OOOO....",
"............                >>>>>>>>                ........    ",
"............                >>>>>>>>                ........    ",
"............                >>>>>>>>                ........    ",
"............                >>>>>>>>                ........    ",
"    XXXX+OOOO++++O+++++O        &&&&    +OOOO++++O+++++OXXXX....",
"    XXXX++OO++++OO++++OO        &&&&    ++OO++++OO++++OOXXXX....",
"    XXXX++++++++O+++++OO        &&&&    ++++++++O+++++OOXXXX....",
"    XXXX++++++++++++++++        &&&&    ++++++++++++++++XXXX....",
"    OOOOO+++++OO++++++++    &&&&&&&&    O+++++OO++++++++++++    ",
"    OOOOO++++OOO++++++++    &&&&&&&&    O++++OOO+++++++++O++    ",
"    ++O+++++++OO+++++O++    &&&&&&&&    ++++++OO+++++O++OOOO    ",
"    ++++++++++OOOO+++OOO    &&&&&&&&    ++++++OOOO+++OOOOOOO    ",
"    XXXXXXXXXXXXXXXXXXXXXXXX        XXXXXXXXXXXXXXXXXXXXXXXX    ",
"    XXXXXXXXXXXXXXXXXXXXXXXX        XXXXXXXXXXXXXXXXXXXXXXXX    ",
"    XXXXXXXXXXXXXXXXXXXXXXXX        XXXXXXXXXXXXXXXXXXXXXXXX    ",
"    XXXXXXXXXXXXXXXXXXXXXXXX        XXXXXXXXXXXXXXXXXXXXXXXX    ",
"                                                                ",
"                                                                ",
"                                                                ",
"                                                                "
};
