/* XPM */
static char *_4_wall_6[] = {
/* columns rows colors chars-per-pixel */
"64 64 5 1 ",
"  c #25131A",
". c #3D253B",
"X c #4C2F49",
"o c #6E4A48",
"O c #78514F",
/* pixels */
"XXXXXXXXXXXXXXXXXXXXXXXXXXXXXXXXXXXXXXXXXXXXXXXXXXXXXXXXXXXXXXXX",
"XXXXXXXXXXXXXXXXXXXXXXXXXXXXXXXXXXXXXXXXXXXXXXXXXXXXXXXXXXXXXXXX",
"XXXXXXXXXXXXXXXXXXXXXXXXXXXXXXXXXXXXXXXXXXXXXXXXXXXXXXXXXXXXXXXX",
"XXXXXXXXXXXXXXXXXXXXXXXXXXXXXXXXXXXXXXXXXXXXXXXXXXXXXXXXXXXXXXXX",
"XXXXooooooooooooooooooooooooooooXXXXXXXXooooooooooooooooOOOOXXXX",
"XXXXooooooooooooooooooooooooooooXXXXXXXXooooooooooooooooOOOOXXXX",
"XXXXooooooooooooooooooooooooooooXXXXXXXXooooooooooooooooOOOOXXXX",
"XXXXooooooooooooooooooooooooooooXXXXXXXXooooooooooooooooOOOOXXXX",
"XXXXooooooooooooooooooooooooooooXXXXXXXXooooooooooooooooOOOOXXXX",
"XXXXooooooooooooooooooooooooooooXXXXXXXXooooooooooooooooOOOOXXXX",
"XXXXooooooooooooooooooooooooooooXXXXXXXXooooooooooooooooOOOOXXXX",
"XXXXooooooooooooooooooooooooooooXXXXXXXXooooooooooooooooOOOOXXXX",
"XXXXooooooooooooooooooooooooooooXXXXXXXXooooooooooooooooOOOOXXXX",
"XXXXooooooooooooooooooooooooooooXXXXXXXXooooooooooooooooOOOOXXXX",
"XXXXooooooooooooooooooooooooooooXXXXXXXXooooooooooooooooOOOOXXXX",
"XXXXooooooooooooooooooooooooooooXXXXXXXXooooooooooooooooOOOOXXXX",
"XXXXooooooooooooooooooooooooooooXXXXXXXXooooooooooooooooOOOOXXXX",
"XXXXooooooooooooooooooooooooooooXXXXXXXXooooooooooooooooOOOOXXXX",
"XXXXooooooooooooooooooooooooooooXXXXXXXXooooooooooooooooOOOOXXXX",
"XXXXooooooooooooooooooooooooooooXXXXXXXXooooooooooooooooOOOOXXXX",
"XXXXooooooooooooooooooooooooooooXXXXXXXXooooooooooooooooOOOOXXXX",
"XXXXooooooooooooooooooooooooooooXXXXXXXXooooooooooooooooOOOOXXXX",
"XXXXooooooooooooooooooooooooooooXXXXXXXXooooooooooooooooOOOOXXXX",
"XXXXooooooooooooooooooooooooooooXXXXXXXXooooooooooooooooOOOOXXXX",
"XXXXXXXXXXXXXXXXXXXXXXXXXXXXXXXXXXXXXXXXooooooooooooooooOOOOXXXX",
"XXXXXXXXXXXXXXXXXXXXXXXXXXXXXXXXXXXXXXXXooooooooooooooooOOOOXXXX",
"XXXXXXXXXXXXXXXXXXXXXXXXXXXXXXXXXXXXXXXXooooooooooooooooOOOOXXXX",
"XXXXXXXXXXXXXXXXXXXXXXXXXXXXXXXXXXXXXXXXooooooooooooooooOOOOXXXX",
"....................................XXXXooooooooooooooooOOOOXXXX",
"....................................XXXXooooooooooooooooOOOOXXXX",
"....................................XXXXooooooooooooooooOOOOXXXX",
"....................................XXXXooooooooooooooooOOOOXXXX",
"                                ....XXXXooooooooooooooooOOOOXXXX",
"                                ....XXXXooooooooooooooooOOOOXXXX",
"                                ....XXXXooooooooooooooooOOOOXXXX",
"                                ....XXXXooooooooooooooooOOOOXXXX",
"....                                XXXXooooooooooooooooOOOOXXXX",
"....                                XXXXooooooooooooooooOOOOXXXX",
"....                                XXXXooooooooooooooooOOOOXXXX",
"....                                XXXXooooooooooooooooOOOOXXXX",
"                                    XXXXooooooooooooooooOOOOXXXX",
"                                    XXXXooooooooooooooooOOOOXXXX",
"                                    XXXXooooooooooooooooOOOOXXXX",
"                                    XXXXooooooooooooooooOOOOXXXX",
"............................        XXXXooooooooooooooooOOOOXXXX",
"............................        XXXXooooooooooooooooOOOOXXXX",
"............................        XXXXooooooooooooooooOOOOXXXX",
"............................        XXXXooooooooooooooooOOOOXXXX",
"                                    XXXXooooooooooooooooOOOOXXXX",
"                                    XXXXooooooooooooooooOOOOXXXX",
"                                    XXXXooooooooooooooooOOOOXXXX",
"                                    XXXXooooooooooooooooOOOOXXXX",
"                                    XXXXooooooooooooooooOOOOXXXX",
"                                    XXXXooooooooooooooooOOOOXXXX",
"                                    XXXXooooooooooooooooOOOOXXXX",
"                                    XXXXooooooooooooooooOOOOXXXX",
"                                    XXXXooooooooooooooooooooXXXX",
"                                    XXXXooooooooooooooooooooXXXX",
"                                    XXXXooooooooooooooooooooXXXX",
"                                    XXXXooooooooooooooooooooXXXX",
"                                    XXXXXXXXXXXXXXXXXXXXXXXXXXXX",
"                                    XXXXXXXXXXXXXXXXXXXXXXXXXXXX",
"                                    XXXXXXXXXXXXXXXXXXXXXXXXXXXX",
"                                    XXXXXXXXXXXXXXXXXXXXXXXXXXXX"
};
