/* XPM */
static char *_4_wall_4[] = {
/* columns rows colors chars-per-pixel */
"64 64 4 1 ",
"  c #25131A",
". c #4C2F49",
"X c #6E4A48",
"o c #78514F",
/* pixels */
"........................                                        ",
"........................                                        ",
"........................                                        ",
"........................                                        ",
"....ooooooooooooXXXXoooo....                                    ",
"....ooooooooooooXXXXoooo....                                    ",
"....ooooooooooooXXXXoooo....                                    ",
"....ooooooooooooXXXXoooo....                                    ",
"....ooooXXXXXXXXXXXXXXXX....                                    ",
"....ooooXXXXXXXXXXXXXXXX....                                    ",
"....ooooXXXXXXXXXXXXXXXX....                                    ",
"....ooooXXXXXXXXXXXXXXXX....                                    ",
"....ooooXXXXXXXXXXXXXXXX....                                    ",
"....ooooXXXXXXXXXXXXXXXX....                                    ",
"....ooooXXXXXXXXXXXXXXXX....                                    ",
"....ooooXXXXXXXXXXXXXXXX....                                    ",
"....ooooXXXXXXXXXXXXXXXX....                                    ",
"....ooooXXXXXXXXXXXXXXXX....                                    ",
"....ooooXXXXXXXXXXXXXXXX....                                    ",
"....ooooXXXXXXXXXXXXXXXX....                                    ",
"....ooooXXXXXXXXXXXXXXXX....                                    ",
"....ooooXXXXXXXXXXXXXXXX....                                    ",
"....ooooXXXXXXXXXXXXXXXX....                                    ",
"....ooooXXXXXXXXXXXXXXXX....                                    ",
"....ooooXXXXXXXXXXXXXXXX....                                    ",
"....ooooXXXXXXXXXXXXXXXX....                                    ",
"....ooooXXXXXXXXXXXXXXXX....                                    ",
"....ooooXXXXXXXXXXXXXXXX....                                    ",
"....ooooooooooooXXXXoooo....                                    ",
"....ooooooooooooXXXXoooo....                                    ",
"....ooooooooooooXXXXoooo....                                    ",
"....ooooooooooooXXXXoooo....                                    ",
"    ....................                                        ",
"    ....................                                        ",
"    ....................                                        ",
"    ....................                                        ",
"....ooooooooooooXXXXoooo....                                    ",
"....ooooooooooooXXXXoooo....                                    ",
"....ooooooooooooXXXXoooo....                                    ",
"....ooooooooooooXXXXoooo....                                    ",
"....ooooXXXXXXXXXXXXXXXX....                                    ",
"....ooooXXXXXXXXXXXXXXXX....                                    ",
"....ooooXXXXXXXXXXXXXXXX....                                    ",
"....ooooXXXXXXXXXXXXXXXX....                                    ",
"....ooooXXXXXXXXXXXXXXXX....                                    ",
"....ooooXXXXXXXXXXXXXXXX....                                    ",
"....ooooXXXXXXXXXXXXXXXX....                                    ",
"....ooooXXXXXXXXXXXXXXXX....                                    ",
"....ooooXXXXXXXXXXXXXXXX....                                    ",
"....ooooXXXXXXXXXXXXXXXX....                                    ",
"....ooooXXXXXXXXXXXXXXXX....                                    ",
"....ooooXXXXXXXXXXXXXXXX....                                    ",
"....ooooXXXXXXXXXXXXXXXX....                                    ",
"....ooooXXXXXXXXXXXXXXXX....                                    ",
"....ooooXXXXXXXXXXXXXXXX....                                    ",
"....ooooXXXXXXXXXXXXXXXX....                                    ",
"....ooooooooooooXXXXoooo....                                    ",
"....ooooooooooooXXXXoooo....                                    ",
"....ooooooooooooXXXXoooo....                                    ",
"....ooooooooooooXXXXoooo....                                    ",
"    ....................                                        ",
"    ....................                                        ",
"    ....................                                        ",
"    ....................                                        "
};
